<?xml version="1.0" encoding="utf-8"?>
<!-- Generator: Adobe Illustrator 23.0.1, SVG Export Plug-In . SVG Version: 6.00 Build 0)  -->
<svg version="1.1" xmlns="http://www.w3.org/2000/svg" xmlns:xlink="http://www.w3.org/1999/xlink" x="0px" y="0px"
	 viewBox="0 0 100 117.77" style="enable-background:new 0 0 100 117.77;" xml:space="preserve">
<style type="text/css">
	.st0{fill:#231815;}
	.st1{fill:#0098A8;}
</style>
<g id="画像">
</g>
<g id="design">
	<g>
		<path class="st0" d="M74.99,84.08c-0.12-0.06-0.22-0.13-0.18-0.31c0.01-0.06,0.83-2.76,0.84-2.81c0.02-0.1,0.08-0.14,0.12-0.17
			c0.05-0.03,0.11-0.03,0.17-0.02c0.14,0.04,0.74,0.23,0.79,0.25c0.08,0.03,0.14,0.08,0.17,0.17c0.33,0.84,1.67,1.88,2.67,2.28
			c0.81,0.33,1.63,0.3,2.33,0.01c1.39-0.57,1.32-1.93,1.23-3.33c-0.04-0.58-0.83-13.95-1.11-18.59c-0.07-1.15-0.11-2-0.26-2.25
			c-0.23-0.38-0.73-0.46-1.22-0.51c-0.11-0.01-0.19-0.09-0.2-0.2c-0.01-0.08-0.05-1.12-0.05-1.13c0-0.09,0.03-0.15,0.06-0.18
			c0.05-0.04,0.09-0.07,0.19-0.07h4.53c0.09,0,0.23,0.03,0.25,0.23c0.01,0.08,0.06,0.92,0.06,0.97c0,0.07,0.04,0.28-0.19,0.33
			c-0.28,0.07-0.76,0.18-0.93,0.35c-0.16,0.16-0.26,0.35-0.24,0.74c0.05,1.13,1.05,15.93,1.34,20.11c0.05,0.78,0.4,3.51-1.31,4.83
			c-0.8,0.62-1.9,1.02-2.99,1.02c-0.65,0-1.33-0.11-1.99-0.34c-0.52-0.18-1.66-0.73-2.31-1.13c-0.07-0.04-0.22-0.14-0.42-0.07
			c-0.23,0.08-0.28,0.1-0.34,0.12c-0.03,0.01-0.1,0.06-0.25,0.01C75.59,84.35,75.07,84.12,74.99,84.08"/>
		<path class="st0" d="M39.44,55.96c-0.11-0.3-0.96-2.75-1-2.87c-0.04-0.12-0.13-0.18-0.3-0.16c-0.9,0.1-2.85,0.27-3.12,0.27
			c-0.12,0-0.52,0-0.99,0.01c-0.68,0.01-1.52,0.01-1.87,0.01h-3.17c-0.33,0-2.02-0.12-2.69-0.19c-0.16-0.02-0.24,0.03-0.29,0.16
			c-0.1,0.24-1.07,2.61-1.11,2.73c-0.05,0.11-0.04,0.18-0.03,0.22c0.02,0.05,0.07,0.09,0.13,0.12c0.05,0.02,0.89,0.38,0.93,0.4
			c0.03,0.01,0.17,0.05,0.28-0.1c0.49-0.64,1.17-1.14,1.78-1.31c0.43-0.12,1.44-0.17,3-0.16c-0.15,3.02-1.36,26.58-1.39,27.42
			c-0.02,0.67-0.33,1.04-0.94,1.14c-0.15,0.02-0.3,0.04-0.42,0.05c-0.1,0.01-0.33,0.01-0.34,0.24c-0.02,0.22-0.07,1.01-0.08,1.12
			c-0.02,0.18,0.14,0.26,0.23,0.26h5.12c0.17,0,0.23-0.14,0.23-0.22c0-0.08,0.04-1.02,0.05-1.11c0.01-0.13-0.09-0.23-0.2-0.24
			c-0.53-0.08-1.02-0.18-1.18-0.45c-0.13-0.21-0.1-0.61-0.09-0.82c0.01-0.19,1.07-23.73,1.23-27.38c0.01,0,0.02,0,0.03,0
			c1.79-0.03,2.91,0.03,3.42,0.25c0.19,0.08,0.75,0.44,1.23,1.14c0.06,0.09,0.16,0.17,0.3,0.13c0.05-0.01,1.04-0.33,1.12-0.36
			C39.43,56.2,39.49,56.09,39.44,55.96"/>
		<path class="st0" d="M13.55,68.38c-0.05-0.09-2.92-5.46-2.92-5.46c-0.22,2.35-1.77,18.69-1.85,19.52l-0.01,0.07
			c-0.02,0.21-0.06,0.55,0.05,0.75c0.14,0.27,0.55,0.35,1.11,0.44c0.14,0.02,0.22,0.12,0.21,0.26c-0.01,0.1-0.06,0.97-0.07,1.12
			c-0.01,0.15-0.14,0.2-0.22,0.2H5.11c-0.06,0-0.13-0.03-0.17-0.07c-0.04-0.04-0.06-0.1-0.06-0.17c0.01-0.11,0.08-1.05,0.1-1.18
			c0.02-0.19,0.15-0.21,0.21-0.22c0.05-0.01,0.11-0.02,0.18-0.03c0.09-0.01,0.19-0.02,0.31-0.04c0.51-0.08,0.76-0.16,0.84-1.02
			c0.05-0.56,0.63-6.27,1.14-11.3c0.43-4.31,0.86-8.67,0.88-8.83c0.04-0.37,0.09-0.84-0.05-1.14c-0.17-0.36-0.65-0.41-1.09-0.44
			c-0.12-0.01-0.28-0.01-0.35-0.09C6.99,60.69,7,60.59,7,60.56c0.01-0.06,0.12-1.1,0.13-1.18c0.01-0.14,0.12-0.23,0.25-0.23h3.3
			c0.13,0,0.24,0.07,0.3,0.19c0.1,0.22,2,3.95,2.69,5.29c0.06,0.11,0.1,0.2,0.2,0.2c0.1,0,0.15-0.09,0.23-0.2
			c0.92-1.32,3.29-4.74,4.02-5.81c0.14-0.2,0.28-0.25,0.43-0.25h3.2c0.25,0,0.28,0.13,0.28,0.25c0,0.07-0.09,1.21-0.1,1.27
			c-0.01,0.15-0.12,0.21-0.22,0.22c-0.23,0.01-0.7,0.04-0.93,0.22c-0.27,0.22-0.31,0.58-0.35,1.12c-0.39,5.93-1.1,16.88-1.36,20.82
			c-0.02,0.36-0.03,0.62,0.08,0.81c0.16,0.28,0.73,0.37,1.17,0.44c0.07,0.01,0.21,0.07,0.2,0.24c-0.01,0.18-0.06,1.01-0.06,1.11
			c-0.01,0.11-0.08,0.22-0.22,0.22h-4.69c-0.06,0-0.13-0.03-0.17-0.08c-0.04-0.04-0.06-0.1-0.06-0.16c0-0.06,0.07-0.98,0.08-1.13
			c0.01-0.09,0.05-0.21,0.23-0.23c0.11-0.01,0.26-0.03,0.47-0.07c0.51-0.08,0.73-0.15,0.77-1.01c0.01-0.27,0.22-3.23,0.48-6.98
			c0.3-4.25,0.67-9.52,0.95-13.61c-0.74,1.07-3.71,5.38-4.4,6.37C13.82,68.51,13.64,68.53,13.55,68.38"/>
		<path class="st0" d="M40.3,82.84h-1.99c-0.14,0-0.28,0.1-0.29,0.28c-0.01,0.18-0.14,1.89-0.15,2.01c-0.01,0.12,0,0.28,0.24,0.28
			h2.12c0.16,0,0.29-0.07,0.3-0.3c0.01-0.23,0.09-1.82,0.1-1.98C40.65,82.92,40.52,82.84,40.3,82.84"/>
		<path class="st0" d="M57.27,49.63c-0.02-0.05-0.5-0.97-0.85-1.66c-0.21-0.4-0.37-0.73-0.39-0.76c-0.07-0.13-0.19-0.19-0.33-0.15
			c-0.12,0.03-1.49,0.42-2.74,0.42h-6.89c-0.14,0-0.28,0.04-0.28,0.25v1.22c0,0.1,0.01,0.21,0.22,0.23c0.19,0.02,0.52,0.04,0.79,0.1
			c0.5,0.1,0.55,0.33,0.55,0.86c0,0.17-0.04,3.87-0.09,8.56c-0.09,8.72-0.24,21.91-0.24,23.09c0,0.05,0,0.1,0,0.16
			c0.01,0.39,0.01,1.1-0.19,1.33c-0.17,0.18-0.65,0.34-1.29,0.43c-0.17,0.02-0.19,0.18-0.2,0.23c-0.01,0.09-0.07,1.07-0.06,1.14
			c0.01,0.1,0.09,0.2,0.23,0.2h5.41c0.12,0,0.22-0.1,0.22-0.23v-1.1c0-0.13-0.08-0.21-0.21-0.23c-0.28-0.04-0.9-0.17-1.01-0.24
			c-0.2-0.12-0.35-0.25-0.35-0.77c0-0.37-0.01-15.34-0.02-25.12h4.98c0.23,0,0.53,0.01,0.72,0.19c0.15,0.15,0.17,0.39,0.19,0.51
			c0.02,0.12,0.01,0.27,0.24,0.27h0.95c0.21,0,0.26-0.06,0.26-0.24c0-0.13-0.05-3.12-0.05-3.36c-0.01-0.21-0.13-0.23-0.26-0.23
			h-0.94c-0.1,0-0.15,0.02-0.19,0.06c-0.05,0.06-0.06,0.17-0.08,0.3c-0.04,0.24-0.1,0.4-0.22,0.5c-0.12,0.1-0.26,0.15-0.6,0.15
			h-5.01c0-3.42,0-5.9,0-6.37h4.2c0.28,0,1.16,0.01,1.62,0.44c0.1,0.1,0.52,0.52,0.6,0.6c0.09,0.08,0.19,0.09,0.29,0.03
			c0.06-0.04,0.91-0.51,0.93-0.52C57.29,49.85,57.33,49.74,57.27,49.63"/>
		<path class="st0" d="M60.47,52.97c-0.11,0-0.25,0.05-0.25,0.25c0,0.2,0.01,1.05,0.01,1.13c0,0.08,0.02,0.21,0.2,0.24
			c0.19,0.03,0.72,0.05,0.98,0.36c0.23,0.29,0.21,0.8,0.22,0.97c0.03,0.54,0.32,22.58,0.33,23.61c0.02,1.5-0.03,4,1.8,5.34
			c1.6,1.16,3.5,1.18,4.46,1.09c0.84-0.08,2.58-0.32,3.79-1.68c0.78-0.88,1.17-1.98,1.13-3.85c-0.09-3.82-0.58-21.65-0.6-22.4
			c-0.03-0.83,0.04-1.2,1.03-1.38c0.27-0.05,0.41-0.03,0.4-0.32c-0.01-0.3-0.03-0.89-0.03-1.07c0-0.16-0.1-0.24-0.27-0.24h-4.33
			c-0.15,0-0.26,0.12-0.26,0.24c0,0.11,0.02,1,0.03,1.15c0.01,0.14,0.06,0.23,0.24,0.26c0.18,0.02,0.68,0.07,0.89,0.29
			c0.2,0.22,0.23,0.34,0.28,0.78c0.04,0.44,0.45,20.25,0.48,22.04c0.03,1.78-0.04,3.81-2.96,4.07c-1.49,0.13-2.49-0.39-2.99-0.93
			c-0.77-0.83-0.81-2.08-0.82-2.81c-0.02-0.82-0.46-23.54-0.48-24.23c-0.03-0.69,0.13-0.91,0.34-1.06c0.21-0.15,0.61-0.23,0.83-0.28
			c0.22-0.05,0.25-0.13,0.24-0.33c-0.01-0.2-0.02-0.81-0.04-1.01c-0.01-0.17-0.04-0.23-0.29-0.23
			C64.57,52.98,60.76,52.97,60.47,52.97"/>
		<path class="st0" d="M93.5,59.8h-4.85c-0.12,0-0.25,0.09-0.25,0.28c0.01,0.21,0.05,0.85,0.07,1.03c0.01,0.09,0,0.27,0.26,0.3
			c0.26,0.03,0.94,0.09,1.18,0.31c0.23,0.21,0.28,0.39,0.32,0.83c0.04,0.45,1.17,19.14,1.2,19.6c0.03,0.46,0.03,0.83-0.22,1.08
			c-0.24,0.24-0.49,0.28-0.65,0.32c-0.16,0.03-0.67,0.1-0.75,0.1c-0.09,0.01-0.25,0.06-0.24,0.3c0.01,0.24,0.06,1.01,0.06,1.1
			c0.01,0.09,0.01,0.24,0.26,0.24h5.25c0.15,0,0.26-0.08,0.24-0.29c-0.02-0.21-0.07-0.86-0.09-1.04c-0.02-0.19-0.16-0.25-0.26-0.26
			c-0.15-0.02-0.63-0.14-0.76-0.19c-0.3-0.12-0.53-0.34-0.57-0.99c-0.05-0.79-1.32-19.71-1.34-19.99c-0.02-0.34-0.03-0.66,0.26-0.9
			c0.24-0.19,0.52-0.22,0.93-0.27c0.19-0.02,0.28-0.07,0.26-0.3c-0.01-0.25-0.05-0.85-0.07-1.02C93.74,59.89,93.69,59.8,93.5,59.8"
			/>
		<path class="st0" d="M3.65,99.53c-0.17-0.09-0.44-0.11-0.69-0.13c-0.27-0.02-0.27-0.18-0.25-0.29c0.01-0.11,0.12-0.78,0.14-0.92
			c0.03-0.2,0.1-0.24,0.26-0.24h5.34c0.96,0,1.84,0.12,2.49,0.89c0.69,0.81,0.88,2.04,0.54,2.96c-0.2,0.54-0.43,0.83-0.61,1.01
			c-0.04,0.04-0.13,0.11-0.13,0.21c0,0.08,0.07,0.13,0.17,0.18c0.58,0.32,3.46,2.12,3.81,6.04c0.31,3.52-1.09,6.14-4.05,7.58
			c-2.08,1.01-4.59,1.22-6.45,1.26c-0.18,0-3.12-0.04-3.98-0.09c-0.09-0.01-0.16-0.06-0.19-0.09c-0.04-0.05-0.05-0.1-0.04-0.16
			c0.01-0.06,0.15-1.21,0.16-1.28c0.01-0.11,0.09-0.18,0.2-0.2c0.07-0.01,0.26-0.01,0.45-0.02c0.24-0.01,0.5-0.02,0.6-0.04
			c0.46-0.11,0.69-0.36,0.73-0.76c0.02-0.17,0.22-1.91,0.49-4.12c0.52-4.35,1.3-10.93,1.31-11.28C3.96,99.72,3.78,99.6,3.65,99.53
			 M5.85,99.52l-1.8,16.57c0.98,0.02,2.78-0.01,4.41-0.47c3.6-1,4-3.96,4.14-4.93c0.15-1.13,0.01-3.3-1.01-4.69
			c-1.22-1.65-3.34-1.98-3.58-2.01c-0.19-0.02-0.69-0.07-0.95-0.08c-0.26-0.01-0.31-0.17-0.3-0.27c0.01-0.1,0.09-0.85,0.11-1.03
			c0.01-0.17,0.14-0.22,0.24-0.22h0.83c0.68,0,1.2-0.25,1.39-0.44c0.74-0.73,0.4-1.8,0.14-2.06C9.23,99.65,9,99.52,8.26,99.52
			C7.53,99.52,5.85,99.52,5.85,99.52"/>
		<path class="st0" d="M24.61,104.45c0.42,3.07,1.7,6.61,2.42,8.13c0.58,1.22,1.21,2.45,1.86,3.15c0.34,0.36,0.66,0.48,1.18,0.57
			c0.18,0.03,0.24,0.17,0.23,0.29c-0.01,0.07-0.05,0.92-0.05,0.99c0,0.12-0.1,0.22-0.22,0.22h-1.97c-0.11,0-0.21-0.03-0.3-0.15
			c-1.56-1.99-2.47-3.76-3.35-6.52c-0.79-2.47-1.36-4.91-1.59-6.86c-0.01-0.06-0.03-0.07-0.08-0.07c-0.16,0-0.32,0.01-0.61,0.01
			c-0.25,0-0.26-0.13-0.26-0.27c0-0.12,0.03-0.85,0.04-0.99c0.01-0.14,0.06-0.25,0.23-0.25h1.2c0.58,0,1.1-0.18,1.37-0.44
			c0.39-0.39,0.42-0.99,0.39-1.29c-0.06-0.59-0.24-0.83-0.38-0.99c-0.4-0.42-1.07-0.4-1.47-0.4h-2.61
			c-0.07,1.18-0.98,15.66-1.01,16.08c-0.03,0.55,0.31,0.68,0.7,0.79c0.14,0.04,0.38,0.08,0.51,0.12c0.14,0.03,0.21,0.12,0.21,0.24
			c0,0.1-0.04,0.87-0.05,0.93c-0.01,0.1-0.08,0.21-0.21,0.21h-4.25c-0.07,0-0.14-0.03-0.19-0.09c-0.04-0.05-0.06-0.1-0.06-0.16
			c0.01-0.13,0.07-0.86,0.07-0.92c0-0.1,0.07-0.21,0.2-0.22c0.2-0.02,0.37-0.05,0.46-0.07c0.42-0.1,0.61-0.33,0.65-0.75
			c0.05-0.62,1.16-15.12,1.15-15.64c0-0.35-0.27-0.5-0.45-0.56c-0.18-0.05-0.55-0.07-0.66-0.08c-0.03,0-0.12-0.01-0.18-0.08
			c-0.03-0.03-0.06-0.08-0.05-0.17c0.01-0.15,0.08-0.89,0.09-0.98c0.01-0.16,0.12-0.23,0.24-0.23h5.22c1.99,0,2.64,0.48,3.1,0.97
			c0.44,0.48,0.66,1.1,0.73,1.7c0.15,1.17-0.24,2.07-0.68,2.56c-0.35,0.39-0.81,0.67-1.4,0.83c-0.05,0.01-0.09,0.03-0.14,0.1
			C24.57,104.24,24.6,104.34,24.61,104.45"/>
		<path class="st0" d="M61.43,98.27c-0.01-0.18-0.15-0.22-0.24-0.22h-2.7c-0.12,0-0.23,0.1-0.22,0.23c0,0.14,0,0.72,0.01,0.89
			c0.01,0.15,0.1,0.2,0.17,0.22c0.21,0.05,0.38,0.11,0.42,0.17c0.07,0.08,0.11,0.15,0.07,0.34c-0.05,0.25-1.8,11.94-2.16,14.32
			c0,0.02-0.05,0.02-0.05,0c-0.44-1.54-1.96-7.3-3.11-11.4c0.39-1.64,0.67-2.79,0.7-2.88c0.08-0.33,0.22-0.42,0.34-0.46
			c0.07-0.03,0.22-0.06,0.26-0.07c0.05-0.01,0.19-0.04,0.2-0.27c0.01-0.23,0.01-0.76,0.01-0.84c0-0.17-0.06-0.24-0.25-0.24h-2.53
			c-0.1,0-0.23,0.06-0.23,0.23c0,0.17-0.01,0.79-0.01,0.86s0.01,0.2,0.17,0.24c0.2,0.05,0.38,0.13,0.43,0.18
			c0.06,0.07,0.07,0.12,0.04,0.3l0,0.03c-0.04,0.2-2.57,11.68-3.2,14.4c-0.01,0.02-0.06,0.03-0.06,0
			c-0.33-2.49-1.81-13.74-1.85-14.03c-0.04-0.35-0.06-0.51,0-0.63c0.05-0.13,0.21-0.18,0.44-0.23c0.13-0.03,0.2-0.11,0.2-0.23
			l0.01-0.88c0-0.06-0.02-0.11-0.06-0.15c-0.04-0.04-0.1-0.07-0.17-0.07h-3c-0.11,0-0.24,0.1-0.24,0.24l-0.01,0.89
			c0,0.12,0.11,0.22,0.21,0.23l0.07,0.01c0.09,0.01,0.23,0.02,0.27,0.03c0.16,0.05,0.33,0.13,0.43,0.38
			c0.04,0.1,0.08,0.38,0.12,0.63c0.02,0.12,0.47,3.62,0.94,7.32c0.5,3.9,1.03,8,1.05,8.2c0.04,0.28-0.06,0.33-0.16,0.36
			c-0.09,0.02-0.19,0.03-0.29,0.05c-0.07,0.01-0.2,0.06-0.2,0.25c0,0.17-0.01,0.84-0.02,0.91c0,0.07,0.01,0.14,0.07,0.19
			c0.04,0.04,0.12,0.07,0.17,0.07h3.49c0.18,0,0.22-0.12,0.23-0.22c0-0.06,0.02-0.89,0.02-0.91c0-0.11,0-0.23-0.2-0.26
			c-0.25-0.03-0.3-0.06-0.34-0.12c-0.06-0.08-0.03-0.23,0.02-0.43c0.08-0.28,0.89-4.03,1.8-8.1c0.15-0.69,0.31-1.38,0.47-2.05
			c0.98,3.66,1.93,7.45,2.51,9.55c0.1,0.36,0.19,0.64,0.2,0.69c0.04,0.13,0.05,0.24,0.01,0.31c-0.02,0.04-0.06,0.07-0.11,0.08
			c-0.09,0.02-0.17,0.04-0.27,0.05c-0.09,0.01-0.2,0.05-0.19,0.23c0,0.18,0.02,0.87,0.02,0.95c0,0.09,0.07,0.23,0.23,0.23h3.39
			c0.09,0,0.25-0.01,0.25-0.28c0-0.27-0.01-0.78-0.02-0.9c-0.01-0.16-0.09-0.2-0.27-0.22c-0.17-0.02-0.27-0.04-0.31-0.1
			c-0.07-0.08-0.04-0.23-0.01-0.46c0.04-0.28,0.42-2.86,0.84-5.85c0.62-4.35,1.4-9.76,1.46-10.05c0.06-0.32,0.19-0.41,0.31-0.46
			c0.07-0.03,0.17-0.05,0.25-0.07c0.19-0.05,0.21-0.17,0.21-0.26C61.44,99.07,61.44,98.44,61.43,98.27"/>
		<path class="st0" d="M69.62,116.64c0,0.06,0.03,0.9,0.03,0.95c0,0.07-0.02,0.13-0.06,0.17c-0.03,0.03-0.08,0.07-0.21,0.07h-4.05
			c-0.07,0-0.22-0.04-0.22-0.22c0-0.06,0-0.88,0-1.01c0-0.15,0.1-0.22,0.19-0.24c0.05-0.01,0.51-0.08,0.6-0.11
			c0.23-0.06,0.49-0.14,0.48-0.69c0-0.19-0.02-1.43-0.05-3.12c-0.08-4.47-0.22-12.28-0.22-12.31c-0.01-0.3-0.01-0.53-0.42-0.6
			c-0.15-0.03-0.54-0.08-0.58-0.09c-0.16-0.03-0.2-0.15-0.2-0.25c0-0.09-0.01-0.69-0.01-0.87c-0.01-0.18,0.17-0.25,0.27-0.25h3.77
			c0.2,0,0.26,0.1,0.26,0.22c0,0.12,0.02,0.59,0.02,0.83c0,0.24-0.14,0.27-0.22,0.29c-0.09,0.02-0.24,0.04-0.36,0.06
			c-0.12,0.02-0.29,0.05-0.41,0.15c-0.14,0.12-0.15,0.3-0.15,0.52c0.02,1.04,0.39,15.28,0.39,15.4c0.01,0.26,0.02,0.49,0.13,0.61
			c0.07,0.08,0.19,0.17,0.77,0.25C69.54,116.43,69.62,116.48,69.62,116.64"/>
		<path class="st0" d="M83.43,114.53c-0.19-2.09-0.96-4.1-1.45-5.28c-0.75-1.84-1.56-3.38-2.17-4.39c-1.7-2.83-3.06-3.78-3.45-4.01
			c0.1,2.55,0.57,14.63,0.58,14.82c0.03,0.5,0.16,0.61,0.37,0.66c0.15,0.04,0.33,0.08,0.48,0.11c0.08,0.02,0.2,0.04,0.22,0.23
			c0.01,0.08,0.04,0.83,0.05,0.93c0,0.08-0.02,0.15-0.07,0.19c-0.04,0.03-0.08,0.06-0.17,0.06h-3.79c-0.2,0-0.24-0.13-0.24-0.24
			c-0.01-0.1-0.01-0.64-0.02-0.89c-0.01-0.2,0.08-0.28,0.21-0.3c0.08-0.02,0.23-0.04,0.61-0.11c0.4-0.08,0.48-0.42,0.48-0.69
			c-0.01-0.47-0.47-15.19-0.48-15.54c-0.01-0.35-0.14-0.55-0.42-0.61c-0.21-0.04-0.43-0.07-0.53-0.08c-0.12-0.01-0.2-0.11-0.21-0.22
			c-0.01-0.1-0.01-0.77-0.01-0.86c0-0.07,0.02-0.13,0.07-0.17c0.06-0.06,0.15-0.07,0.22-0.07h2.36c0.06,0,0.12,0.01,0.19,0.07
			c0.05,0.04,0.06,0.1,0.06,0.17c-0.01,0.13,0,0.23,0,0.28c0.01,0.08,0.04,0.27,0.26,0.43c1.43,1.08,2.94,2.29,4.22,4.19
			c0.81,1.21,1.35,2.14,1.8,3.18c0.02,0.05,0.12,0.06,0.11-0.06c-0.24-2.76-0.47-5.34-0.55-6.24c-0.02-0.24-0.04-0.67-0.53-0.75
			c-0.08-0.01-0.25-0.04-0.34-0.06c-0.06-0.01-0.26-0.02-0.27-0.28C81.02,98.7,81,98.33,81,98.2c0-0.13,0.07-0.25,0.28-0.25h3.42
			c0.11,0,0.25,0.05,0.26,0.22c0.01,0.15,0.04,0.73,0.04,0.87c0,0.14-0.09,0.21-0.19,0.23c-0.12,0.02-0.45,0.08-0.56,0.1
			c-0.09,0.02-0.28,0.08-0.35,0.26c-0.06,0.16-0.02,0.44-0.01,0.52c0.02,0.41,1.37,15.08,1.42,15.58c0.04,0.47,0.19,0.53,0.28,0.57
			c0.07,0.04,0.44,0.1,0.59,0.14c0.15,0.03,0.2,0.08,0.22,0.21c0.02,0.13,0.08,0.74,0.1,0.95c0.02,0.2-0.14,0.26-0.23,0.26h-3.55
			c-0.17,0-0.25-0.09-0.26-0.18c-0.01-0.1-0.04-0.73-0.06-0.97c-0.02-0.26,0.17-0.29,0.29-0.31c0.13-0.02,0.33-0.05,0.47-0.09
			c0.19-0.05,0.41-0.14,0.36-0.69c0-0.04-0.02-0.18-0.03-0.41C83.48,115.11,83.44,114.66,83.43,114.53"/>
		<path class="st0" d="M95.62,108.15c-0.01-0.17-0.04-0.78-0.05-0.91c-0.01-0.15,0.12-0.24,0.26-0.24h3.71
			c0.14,0,0.24,0.06,0.25,0.21c0.01,0.16,0.04,0.68,0.05,0.82c0.01,0.14,0.01,0.26-0.22,0.32c-0.24,0.06-0.54,0.17-0.65,0.41
			c-0.11,0.24-0.07,0.47-0.02,0.95c0.04,0.36,0.82,6.05,1.05,7.78c0.02,0.15,0,0.27-0.08,0.37c-0.12,0.14-0.23,0.15-0.39,0.17
			c-0.08,0.01-0.19,0.01-0.32,0.01c-1.96,0.01-6.61-0.47-9.33-4.09c-1.66-2.22-2.4-5.39-2.03-8.44c0.23-1.92,0.89-3.45,1.9-4.68
			c1.73-2.1,4.03-2.77,5.53-2.93c0.12-0.01,0.19-0.03,0.24-0.05c0.05-0.02,0.06-0.07,0.06-0.11c0-0.05,0.01-0.21,0.01-0.25
			c0-0.16,0.11-0.19,0.15-0.2c0.05-0.02,0.57-0.21,0.65-0.25c0.05-0.02,0.12-0.03,0.17-0.01c0.06,0.02,0.09,0.07,0.12,0.14
			c0.04,0.09,1.15,2.76,1.2,2.87c0.03,0.06,0.03,0.13,0.01,0.18c-0.02,0.06-0.07,0.11-0.12,0.13c-0.06,0.03-0.64,0.26-0.72,0.29
			c-0.15,0.05-0.21,0.02-0.29-0.09c-0.59-0.76-1.19-0.94-2.15-0.86c-1.16,0.09-2.68,0.83-3.63,2.4c-0.83,1.38-1.31,3.37-1.1,5.51
			c0.1,1.03,0.59,4.44,3.49,6.5c1.48,1.05,3.32,1.56,4.26,1.64c0.03,0,0.07-0.01,0.06-0.08c-0.14-1.3-0.68-5.57-0.78-6.42
			c-0.05-0.45-0.4-0.65-0.99-0.75C95.71,108.43,95.62,108.34,95.62,108.15"/>
		<path class="st0" d="M43.66,115.59c-0.03-0.02-0.58-0.37-0.68-0.44c-0.07-0.05-0.22-0.07-0.33,0.08c-0.21,0.3-0.46,0.65-0.66,0.74
			c-0.26,0.12-0.53,0.21-1.71,0.21h-4.64l0.31-11.77h2.65c0.22,0,0.47-0.02,0.63,0.09c0.15,0.1,0.2,0.32,0.24,0.46
			c0.04,0.13,0.17,0.2,0.27,0.2h0.61c0.15,0,0.24-0.09,0.24-0.24c0.01-0.14,0-2.26-0.01-2.53c0-0.22-0.15-0.24-0.25-0.24h-0.62
			c-0.17,0-0.21,0.11-0.23,0.22c-0.02,0.11-0.06,0.28-0.17,0.38c-0.13,0.12-0.46,0.12-0.7,0.12H36l0.09-3.27c0,0,1.72,0,2.2,0
			c0.77,0,1.04,0.22,1.51,0.58c0.08,0.06,0.18,0.12,0.3,0.05c0.07-0.04,0.63-0.31,0.72-0.35c0.06-0.03,0.1-0.08,0.12-0.13
			c0.01-0.04,0.02-0.11-0.03-0.19c-0.03-0.05-0.92-1.73-0.94-1.77c-0.06-0.11-0.18-0.15-0.31-0.1c-0.58,0.23-1.44,0.36-1.93,0.36
			h-4.37c-0.07,0-0.25,0.03-0.26,0.25c-0.01,0.22-0.06,0.82-0.06,0.9c-0.01,0.08,0.02,0.24,0.23,0.26c0.22,0.02,0.38,0.04,0.46,0.05
			c0.12,0.02,0.33,0.03,0.41,0.17c0.07,0.13,0.06,0.4,0.06,0.57c0,0.06-0.54,14.54-0.55,15.05c-0.01,0.71-0.08,0.85-0.4,0.91
			c-0.09,0.02-0.48,0.06-0.59,0.08c-0.1,0.01-0.19,0.05-0.2,0.22c-0.01,0.09-0.05,1.02-0.05,1.09c0,0.06,0.02,0.11,0.06,0.15
			c0.02,0.02,0.08,0.07,0.2,0.07h6.99c1.11,0,2.78,0.29,2.89,0.31c0.03,0.01,0.06,0.01,0.09,0.01c0.08,0,0.16-0.03,0.21-0.14
			c0.09-0.2,0.82-1.9,0.91-2.11C43.82,115.74,43.75,115.65,43.66,115.59"/>
		<path class="st1" d="M79.43,2.59c1.31,0,7.19-1.46,8.26-1.74c0.66-0.17,1.2-0.31,1.73-0.44c0.17-0.04,0.41-0.02,0.56,0.08
			c0.19,0.12,0.27,0.31,0.29,0.48c0.43,3.47,2.05,17.1,3.23,27.15c0.65,5.56,1.17,9.95,1.33,11.24c0.03,0.21-0.06,0.45-0.27,0.56
			c-0.24,0.13-0.54,0.08-0.66,0c-1.12-0.75-10.12-7.01-18.81-13.06c-7.62-5.3-14.66-10.18-15.67-10.89
			c-0.23-0.16-0.65-0.38-1.17-0.38H42.14c-0.52,0-0.94,0.22-1.17,0.38c-1.01,0.71-8.05,5.59-15.67,10.89
			C16.6,32.92,7.61,39.18,6.49,39.92c-0.12,0.08-0.42,0.13-0.66,0c-0.22-0.11-0.3-0.35-0.28-0.56c0.16-1.3,0.67-5.69,1.33-11.24
			C8.07,18.07,9.69,4.44,10.12,0.97c0.02-0.17,0.11-0.36,0.3-0.48c0.15-0.1,0.39-0.12,0.56-0.08c0.54,0.13,1.07,0.27,1.73,0.44
			c1.07,0.28,6.96,1.74,8.26,1.74H79.43z"/>
	</g>
</g>
</svg>
